# xmcd CD database file
#
# Track frame offsets:
#	150
#	22944
#	39306
#	55241
#	71520
#	87111
#	108311
#	123856
#	143636
#	158998
#	172533
#
# Disc length: 2417 seconds
#
# Revision: 0
# Processed by: cddbd v1.5.2PL0 Copyright (c) Steve Scherf et al.
# Submitted via: CDex 1.76
#
DISCID=7b096f0b
DTITLE=Mojo - Never Too Late
DYEAR=2011
DGENRE=Blues
TTITLE0=Your good things is about to run out
TTITLE1=Get loaded
TTITLE2=Cadillac assembly line
TTITLE3=Don't you want to be mine
TTITLE4=Linda Lu
TTITLE5=Early in the morning
TTITLE6=Never make your move too soon
TTITLE7=Lent l'Hiver
TTITLE8=Got a girl
TTITLE9=The Crawl
TTITLE10=J'marche doucement
EXTD=YEAR: 2011
EXTT0=
EXTT1=
EXTT2=
EXTT3=
EXTT4=
EXTT5=
EXTT6=
EXTT7=
EXTT8=
EXTT9=
EXTT10=
PLAYORDER=
